<svg width="468" height="471" viewBox="0 0 468 471" fill="none" xmlns="http://www.w3.org/2000/svg">
<mask id="mask0_1_610" style="mask-type:alpha" maskUnits="userSpaceOnUse" x="0" y="0" width="468" height="471">
<rect width="468" height="470.832" fill="#D9D9D9"/>
</mask>
<g mask="url(#mask0_1_610)">
<path fill-rule="evenodd" clip-rule="evenodd" d="M210.065 19.6299C204.537 25.1033 201.483 31.4349 200.39 34.8463C199.523 37.552 199.247 42.2567 199.265 47.0846C199.284 51.8961 199.593 56.775 199.873 59.7957C199.89 59.9698 199.776 60.1296 199.607 60.1723C199.437 60.215 199.262 60.1279 199.194 59.9669C199 59.5095 198.614 58.837 198.103 58.3204C197.586 57.7992 197.004 57.495 196.392 57.6062C195.694 57.7332 195.023 58.0156 194.469 58.524C193.917 59.0308 193.461 59.7811 193.22 60.8796C193.075 61.5422 193.008 62.3323 193.048 63.271C193.136 65.3344 193.443 67.82 193.916 70.1075C194.391 72.405 195.025 74.4631 195.748 75.6963C196.135 76.356 196.524 77.1805 196.917 78.0255C196.951 78.0966 196.984 78.1679 197.017 78.2393C197.381 79.0227 197.752 79.8188 198.137 80.5403C198.56 81.3309 198.988 82.0053 199.426 82.4626C199.867 82.9233 200.261 83.1057 200.629 83.0597C201.635 82.9339 202.178 82.6262 202.498 82.315C202.798 82.024 202.932 81.7067 203.06 81.4055C203.072 81.3774 203.083 81.3493 203.095 81.3214C203.116 81.2735 203.143 81.2184 203.177 81.1689C203.199 81.1378 203.284 81.0195 203.445 80.9913C203.66 80.9535 203.79 81.0992 203.832 81.1597C203.874 81.2225 203.896 81.2899 203.908 81.331C203.954 81.4941 203.981 81.7796 204.007 82.0966C204.015 82.1925 204.024 82.2952 204.032 82.4038C204.084 83.0566 204.154 83.927 204.303 84.8628C204.373 85.2979 204.443 85.874 204.522 86.5274C204.546 86.7187 204.57 86.9166 204.595 87.1195C204.706 88.0213 204.839 89.0338 205.015 90.0444C205.192 91.0559 205.41 92.0582 205.691 92.9401C205.974 93.827 206.312 94.5664 206.713 95.0711C206.762 95.133 206.79 95.2096 206.79 95.2887C206.83 99.6117 206.88 107.013 206.866 111.961C206.86 114.411 206.838 116.282 206.789 116.865C206.736 117.508 206.363 118.159 205.821 118.797C205.273 119.442 204.517 120.113 203.626 120.797C201.845 122.164 199.478 123.614 197.039 125.033C192.137 127.885 183.691 131.706 173.659 135.169C168.991 136.78 165.694 137.283 162.497 137.771C162.24 137.81 161.984 137.849 161.728 137.888C158.295 138.418 154.845 139.033 149.739 141.102C149.169 141.333 148.617 141.555 148.081 141.771L147.708 141.921C143.247 143.717 139.918 145.086 136.815 147.292C133.718 149.495 130.828 152.547 127.29 157.73C119.732 168.804 119.018 183.776 119.018 191.575C119.018 197.826 118.722 203.768 118.574 205.962C118.57 206.019 118.553 206.074 118.523 206.123C117.226 208.246 115.19 211.724 113.302 215.255C111.41 218.794 109.682 222.356 108.985 224.659C108.629 225.831 108.151 227.255 107.603 228.839C107.211 229.969 106.784 231.18 106.34 232.441C104.272 238.306 101.824 245.247 100.836 250.072C99.6601 255.814 98.4157 258.002 96.1164 262.045C95.4422 263.231 94.6774 264.576 93.797 266.216C93.4755 266.815 93.1493 267.417 92.8184 268.028C89.1379 274.82 84.8882 282.662 80.2615 299.302C77.7389 308.374 75.968 317.272 74.4609 325.096C74.3297 325.777 74.2006 326.449 74.073 327.114C72.7371 334.072 71.5823 340.087 70.2402 344.439C68.7745 349.191 66.2672 356.313 64.0279 362.377C62.908 365.41 61.8542 368.18 61.0299 370.26C60.6179 371.3 60.2625 372.169 59.9844 372.813C59.8455 373.135 59.7247 373.403 59.6251 373.609C59.5303 373.805 59.4423 373.972 59.3687 374.07C59.2364 374.247 59.0424 374.412 58.8258 374.564C58.6053 374.719 58.3423 374.874 58.0552 375.026C57.481 375.329 56.7891 375.631 56.1021 375.905C54.7274 376.452 53.3431 376.899 52.8921 377.034C52.2052 377.24 50.2163 378.053 49.2924 378.44L49.2916 378.44C46.1253 379.76 43.0455 381.608 41.8253 382.48C41.2925 382.861 40.8093 383.345 40.2981 383.858C40.2424 383.914 40.1865 383.971 40.1301 384.027C39.566 384.591 38.9621 385.174 38.2553 385.599C37.7812 385.883 37.1386 386.224 36.4602 386.584C36.174 386.736 35.8815 386.891 35.5925 387.047C34.6027 387.581 33.6541 388.122 33.0611 388.588C31.8324 389.553 30.2628 391.039 29.4907 392.068C29.1968 392.46 29.0623 392.768 28.9548 393.056C28.9366 393.104 28.9188 393.154 28.9005 393.204C28.8121 393.449 28.715 393.718 28.54 393.993C28.4344 394.159 28.302 394.326 28.1279 394.5C27.7415 394.886 27.2015 395.308 26.6477 395.74L26.5108 395.847C25.8995 396.325 25.2733 396.822 24.7589 397.337C24.4758 397.62 24.228 398.122 24.1245 398.727C24.0221 399.326 24.0683 399.988 24.3283 400.578C24.5983 401.19 25.1063 401.742 25.966 402.075C27.2619 402.577 28.8319 402.625 30.3507 402.345C31.8688 402.065 33.3007 401.463 34.3138 400.703C35.3461 399.929 35.9685 399.221 36.4805 398.6C36.5434 398.524 36.6052 398.448 36.6665 398.373C37.0967 397.846 37.4993 397.352 38.0483 396.972C38.6539 396.553 39.6331 396.053 40.6114 395.66C41.4827 395.309 42.4067 395.02 43.0895 394.967L44.5096 392.393C44.6042 392.222 44.82 392.159 44.9914 392.254C45.1629 392.349 45.2253 392.564 45.1306 392.736L43.621 395.472C42.7612 397.37 40.8107 401.819 39.8252 404.565C38.733 407.607 37.0135 414.54 36.0777 418.313C35.9568 418.801 35.8489 419.236 35.7572 419.603C34.9594 422.794 33.543 428.725 32.8358 432.439C32.1241 436.175 31.2442 441.109 31.1571 442.852C31.1461 443.071 31.1193 443.356 31.0892 443.677C31.078 443.795 31.0664 443.919 31.0549 444.046C31.0119 444.524 30.9693 445.067 30.955 445.633C30.9261 446.777 31.0139 447.973 31.4126 448.9C31.6181 449.378 31.9013 449.772 32.2837 450.054C32.664 450.334 33.1641 450.52 33.832 450.548C35.2519 450.607 36.3092 449.936 37.1064 448.989C38.424 447.424 38.9659 445.182 39.1225 444.534C39.1323 444.494 39.1405 444.46 39.1474 444.432C39.2016 444.216 39.3328 443.488 39.5011 442.543L39.5472 442.284C39.7037 441.405 39.8842 440.391 40.0556 439.487C40.2517 438.454 40.4419 437.531 40.5735 437.136C40.6768 436.826 40.9288 435.981 41.2743 434.821C41.7935 433.078 42.5239 430.627 43.2778 428.221C43.7441 426.733 44.218 425.268 44.6531 424.011C45.451 421.706 46.0063 420.129 46.4068 419.05C46.8042 417.979 47.0574 417.375 47.2515 417.036C47.3794 416.812 47.5749 416.648 47.8307 416.628C48.0664 416.609 48.2626 416.721 48.3913 416.834C48.5236 416.95 48.6295 417.103 48.689 417.261C48.7412 417.399 48.7932 417.64 48.6524 417.852C48.5813 417.958 48.3031 418.467 47.9838 419.194C47.6673 419.914 47.3214 420.824 47.1064 421.727C46.9523 422.374 46.5332 423.922 46.0265 425.794C45.7995 426.632 45.5549 427.536 45.3086 428.452C44.5095 431.427 43.693 434.539 43.3855 436.077C43.0783 437.613 42.9466 438.732 42.8251 439.836L42.7993 440.072C42.6867 441.1 42.5723 442.146 42.3228 443.518C42.1758 444.326 41.9651 445.277 41.7395 446.294C41.5578 447.114 41.3664 447.977 41.1911 448.844C40.7931 450.812 40.4667 452.845 40.4667 454.626C40.4667 455.598 40.5247 456.471 40.6551 457.225C40.8313 458.244 41.1346 459.014 41.5751 459.525C42.0027 460.021 42.5826 460.3 43.3924 460.3C45.331 460.3 46.3843 459.196 46.8667 458.501C46.9549 458.375 47.0235 458.262 47.0741 458.173C47.4112 457.583 48.4624 455.134 48.8981 453.217C49.112 452.276 49.4104 450.662 49.7029 449.08L49.7263 448.953C50.0243 447.342 50.3149 445.776 50.4957 445.053C50.5726 444.745 50.7707 443.894 51.044 442.72C51.3992 441.194 51.8814 439.123 52.3898 436.989C53.2854 433.23 54.2653 429.263 54.76 427.824C55.003 427.117 55.2351 426.415 55.454 425.752L55.4993 425.614C55.701 425.003 55.8915 424.425 56.0677 423.912C56.2566 423.362 56.4314 422.879 56.5885 422.504C56.6669 422.316 56.7432 422.15 56.8169 422.013C56.8873 421.882 56.968 421.753 57.0611 421.66C57.4191 421.302 57.9279 421.323 58.2683 421.494C58.4435 421.581 58.6095 421.723 58.7036 421.919C58.8033 422.126 58.809 422.369 58.6929 422.601L58.6924 422.602C58.6916 422.604 58.69 422.607 58.6875 422.613C58.6839 422.622 58.6793 422.633 58.6738 422.647C58.6625 422.676 58.6485 422.713 58.6318 422.76C58.5983 422.854 58.5557 422.979 58.505 423.133C58.4037 423.442 58.2719 423.861 58.1177 424.364C57.8096 425.37 57.4141 426.708 56.9991 428.169C56.1681 431.094 55.2628 434.496 54.8225 436.697C54.4216 438.702 54.1847 440.323 53.9699 441.793C53.9484 441.941 53.927 442.087 53.9058 442.232C53.6729 443.817 53.4491 445.252 53.045 446.823C52.9925 447.027 52.9318 447.256 52.8656 447.506C52.3256 449.544 51.4172 452.972 51.5736 455.669C51.6337 456.704 51.8497 457.591 52.272 458.239C52.6837 458.871 53.306 459.302 54.2513 459.416C55.5847 459.577 56.7003 458.827 57.6535 457.499C58.7896 455.915 59.6114 453.614 60.1975 451.484C60.6098 449.985 60.895 448.615 61.0962 447.648C61.1821 447.235 61.2526 446.896 61.3113 446.652C61.5693 445.577 62.1349 443.663 62.6884 441.79L62.7567 441.559C63.3356 439.599 63.8839 437.734 64.0575 436.909C64.4117 435.227 65.657 429.886 66.3747 427.823C66.4955 427.475 66.6275 427.068 66.7676 426.635C67.0267 425.834 67.3137 424.948 67.6099 424.196C67.8391 423.615 68.0868 423.079 68.3513 422.699C68.4829 422.511 68.634 422.338 68.8085 422.223C68.9904 422.102 69.217 422.033 69.4627 422.1C69.7748 422.185 69.9018 422.461 69.9496 422.683C69.9986 422.909 69.9927 423.185 69.9616 423.471C69.8985 424.051 69.7167 424.793 69.4995 425.544C69.2811 426.3 69.0213 427.085 68.7953 427.755C68.7486 427.893 68.7035 428.026 68.6607 428.153C68.4937 428.645 68.36 429.039 68.2919 429.278C68.1205 429.878 67.9024 431.053 67.6791 432.27L67.6539 432.407C67.4419 433.563 67.2273 434.733 67.0523 435.389C66.9956 435.602 66.9091 435.912 66.8024 436.295C66.5385 437.241 66.1509 438.631 65.785 440.083C65.3549 441.791 64.9643 443.549 64.846 444.731C64.7756 445.436 64.7319 446.107 64.7592 446.719C64.7968 447.565 64.9684 448.258 65.3513 448.766C65.7249 449.261 66.3381 449.63 67.3717 449.752C67.9579 449.821 68.5342 449.515 69.1068 448.877C69.6764 448.242 70.1878 447.336 70.6311 446.356C71.0723 445.381 71.4363 444.355 71.7186 443.497C71.8385 443.133 71.946 442.791 72.0386 442.497C72.1589 442.114 72.2541 441.811 72.3188 441.643C72.5359 441.078 73.4187 438.409 74.2848 435.71C75.153 433.005 75.9871 430.325 76.1153 429.727C76.2549 429.075 76.842 427.364 77.5042 425.598C78.1693 423.825 78.9285 421.947 79.4253 420.954C79.8926 420.019 80.5899 417.873 81.2752 415.346C81.9634 412.807 82.6295 409.923 83.0278 407.577C83.2287 406.394 83.4851 405.174 83.7454 403.947L83.7908 403.733C84.0368 402.575 84.2837 401.412 84.4913 400.259C84.933 397.808 85.1902 395.438 84.8882 393.324C84.8583 393.115 84.829 392.911 84.8005 392.713C84.2372 388.8 83.9601 386.875 85.2666 383.74C85.7612 382.552 86.2855 381.204 86.8135 379.846C87.6897 377.592 88.5759 375.313 89.3529 373.703C89.4084 373.588 89.4704 373.459 89.5391 373.315C91.0148 370.231 95.6466 360.553 108.54 343.588C121.153 326.992 129.401 308.457 132.269 296.465C132.459 295.671 132.625 294.907 132.767 294.174C134.61 284.673 136.135 276.035 136.666 272.905C136.674 272.862 136.689 272.821 136.71 272.784C144.732 259.176 150.844 247.782 154.421 235.099C154.463 234.949 154.599 234.844 154.755 234.841C154.911 234.838 155.051 234.937 155.099 235.086C156.033 237.961 157.564 241.943 159.133 246.021C159.42 246.769 159.709 247.52 159.995 248.267C161.84 253.081 163.597 257.78 164.312 260.643C165.021 263.478 165.46 264.968 165.896 266.123C166.223 266.99 166.548 267.668 166.991 268.593C167.14 268.903 167.301 269.24 167.481 269.621L167.614 269.904C168.985 272.814 170.354 275.722 170.705 279.313C170.778 280.062 170.905 281.013 171.061 282.135C171.101 282.424 171.143 282.725 171.187 283.035C171.445 284.873 171.754 287.075 172.022 289.504C172.375 292.705 172.657 296.306 172.657 300.005C172.657 304.385 171.847 308.454 171.059 312.419L171.032 312.553C170.233 316.57 169.466 320.478 169.554 324.556C169.611 327.208 169.686 329.374 169.762 331.198C169.814 332.451 169.867 333.545 169.914 334.527C170.011 336.544 170.086 338.084 170.086 339.547C170.086 340.4 169.85 341.418 169.492 342.626C169.28 343.339 169.02 344.138 168.731 345.024C168.531 345.637 168.317 346.293 168.096 346.99C167.014 350.414 165.735 354.958 164.94 361.048C164.33 365.728 163.732 369.179 163.197 372.076C163.071 372.758 162.949 373.408 162.831 374.036C162.447 376.078 162.108 377.882 161.833 379.76C161.612 381.277 161.433 382.84 161.308 384.61C161.307 384.621 161.306 384.631 161.304 384.642C161.058 386.162 160.782 387.922 160.486 389.869C158.333 404.047 155.147 428.094 155.023 441.596C154.897 455.267 155.666 470.843 156.185 481.365C156.397 485.649 156.567 489.095 156.619 491.233C156.795 498.573 157.769 508.739 160.242 517.924C160.476 518.797 160.73 519.682 160.996 520.575C161.631 522.703 162.339 524.875 163.048 527.037L163.217 527.551C163.869 529.538 164.517 531.512 165.102 533.424C166.37 537.57 167.353 541.463 167.435 544.605C167.519 547.846 167.03 549.914 166.477 552.252C166.439 552.414 166.4 552.576 166.362 552.741C165.767 555.274 165.129 558.262 165.041 563.504C164.864 574.04 165.484 584.845 165.661 587.68C165.674 587.89 165.654 588.211 165.612 588.611C165.569 589.017 165.502 589.528 165.414 590.129C165.239 591.331 164.98 592.907 164.669 594.762C164.554 595.451 164.431 596.18 164.302 596.942C163.738 600.283 163.064 604.277 162.411 608.524C160.803 618.971 159.325 630.899 159.898 638.388C160.716 649.083 163.324 666.452 165.498 680.295C165.954 683.201 166.392 685.954 166.79 688.455C167.162 690.8 167.5 692.924 167.785 694.747C167.944 695.76 168.126 696.919 168.328 698.202C169.426 705.175 171.098 715.797 172.591 726.279C174.357 738.679 175.878 750.919 175.892 756.686C175.892 758.388 175.661 761.794 175.375 764.886C175.232 766.434 175.075 767.91 174.925 769.062C174.85 769.637 174.777 770.135 174.708 770.521C174.642 770.891 174.573 771.203 174.496 771.372C174.049 772.356 173.021 774.703 173.021 776.722C173.021 777.206 173.078 777.695 173.154 778.204C173.177 778.359 173.202 778.518 173.227 778.679C173.283 779.037 173.341 779.406 173.384 779.774C173.509 780.855 173.514 782.011 172.993 783.244C172.471 784.477 171.178 785.827 169.973 786.911C168.828 787.941 167.711 788.775 167.279 789.097L167.204 789.153C166.832 789.431 166.491 789.696 166.159 789.954C164.639 791.134 163.315 792.162 160.136 793.624C159.056 794.12 158.064 794.765 157.3 795.479C156.531 796.197 156.016 796.962 155.845 797.694C155.678 798.403 155.825 799.111 156.445 799.781C157.082 800.467 158.229 801.125 160.084 801.649C163.867 802.717 167.048 803.896 169.283 804.809C170.401 805.266 171.283 805.655 171.886 805.932C172.188 806.07 172.42 806.179 172.577 806.255C172.655 806.292 172.715 806.322 172.755 806.341L172.801 806.364L172.813 806.37L172.816 806.371L172.817 806.372C172.817 806.372 172.818 806.372 172.659 806.689L172.818 806.372C172.916 806.421 172.986 806.513 173.007 806.621C173.263 807.927 173.805 808.827 174.602 809.445C175.408 810.069 176.51 810.433 177.936 810.592C182.294 811.08 187.312 811.474 191.697 810.94C196.094 810.404 199.518 809.445 201.527 805.834C201.622 805.666 201.853 805.127 202.112 804.329C202.367 803.54 202.642 802.52 202.832 801.4C203.214 799.144 203.237 796.559 202.146 794.629C201.84 794.086 201.559 793.604 201.305 793.168C200.879 792.437 200.532 791.841 200.276 791.325C200.068 790.906 199.91 790.522 199.812 790.139C199.689 789.659 199.556 788.56 199.518 787.425C199.499 786.854 199.504 786.262 199.548 785.725C199.591 785.193 199.675 784.689 199.826 784.306C200.064 783.7 200.174 782.672 200.218 781.46C200.25 780.562 200.246 779.597 200.242 778.681C200.24 778.376 200.239 778.077 200.239 777.786C200.239 776.948 199.962 775.595 199.625 774.144C199.533 773.749 199.437 773.348 199.342 772.952C199.094 771.917 198.854 770.914 198.716 770.135C198.49 768.855 198.519 768.137 198.568 767.152L198.572 767.073C198.621 766.115 198.683 764.869 198.555 762.557C198.288 757.753 198.377 741.958 198.554 731.678C198.732 721.366 201.662 697.481 206.905 681.305C208.359 676.82 209.387 672.529 210.092 668.41C211.913 657.767 211.581 648.278 210.879 639.596C210.524 635.201 209.542 630.375 208.539 625.446C208.172 623.641 207.803 621.823 207.46 620.007C206.185 613.258 205.285 606.549 206.362 600.846C207.431 595.189 208.99 590.58 210.387 586.534L210.548 586.069C211.881 582.211 213.031 578.882 213.452 575.599C213.892 572.166 214.003 566.581 214.103 561.497L214.103 561.465C214.153 558.94 214.2 556.543 214.285 554.609C214.327 553.638 214.379 552.78 214.446 552.079C214.512 551.385 214.594 550.821 214.705 550.452C214.921 549.733 215.271 547.99 215.675 545.705C216.714 539.823 218.072 530.535 218.326 526.594C218.43 524.978 218.952 522.038 219.676 518.488C220.401 514.929 221.336 510.732 222.274 506.59C222.591 505.193 222.908 503.803 223.217 502.445L223.444 501.447C224.39 497.293 225.246 493.519 225.78 490.905C226.666 486.563 228.116 479.051 229.351 472.524C229.968 469.261 230.532 466.244 230.944 463.994C231.15 462.869 231.318 461.936 231.436 461.26C231.557 460.568 231.62 460.175 231.625 460.1C231.631 459.99 231.671 459.774 231.727 459.471L231.754 459.323C231.828 458.922 231.93 458.355 232.051 457.587C232.293 456.052 232.612 453.71 232.93 450.293C233.565 443.457 234.195 432.32 234.195 414.729C234.195 414.533 234.354 414.374 234.55 414.374C234.746 414.374 234.904 414.533 234.904 414.729C234.904 432.32 235.534 443.457 236.17 450.293C236.487 453.71 236.806 456.052 237.049 457.587C237.17 458.355 237.272 458.922 237.345 459.323L237.372 459.471C237.428 459.774 237.468 459.99 237.475 460.1C237.479 460.175 237.542 460.568 237.663 461.26C237.781 461.936 237.949 462.869 238.155 463.994C238.568 466.244 239.131 469.261 239.749 472.524C240.984 479.051 242.434 486.563 243.32 490.905C243.853 493.519 244.709 497.293 245.655 501.447L245.882 502.445C246.192 503.803 246.509 505.193 246.825 506.59C247.763 510.732 248.698 514.929 249.424 518.488C250.148 522.038 250.669 524.978 250.773 526.594C251.028 530.535 252.386 539.823 253.424 545.705C253.828 547.99 254.179 549.733 254.394 550.452C254.505 550.821 254.588 551.385 254.654 552.079C254.72 552.78 254.772 553.638 254.815 554.609C254.899 556.543 254.946 558.94 254.996 561.465L254.997 561.497C255.096 566.581 255.207 572.166 255.648 575.599C256.068 578.882 257.219 582.211 258.551 586.069L258.712 586.534C260.109 590.58 261.668 595.189 262.737 600.846C263.815 606.549 262.914 613.258 261.64 620.007C261.297 621.823 260.927 623.641 260.56 625.446C259.557 630.375 258.576 635.201 258.22 639.596C257.518 648.278 257.186 657.767 259.008 668.41C259.713 672.529 260.74 676.82 262.194 681.305C267.438 697.481 270.367 721.366 270.545 731.678C270.722 741.958 270.811 757.753 270.545 762.557C270.416 764.869 270.479 766.115 270.527 767.073L270.531 767.152C270.58 768.137 270.609 768.855 270.383 770.135C270.246 770.914 270.005 771.917 269.757 772.952C269.662 773.348 269.566 773.75 269.474 774.144C269.137 775.595 268.861 776.948 268.861 777.786C268.861 778.077 268.859 778.376 268.858 778.682C268.854 779.598 268.849 780.562 268.881 781.46C268.925 782.672 269.035 783.7 269.274 784.306C269.425 784.689 269.508 785.193 269.552 785.725C269.596 786.262 269.6 786.854 269.581 787.425C269.543 788.56 269.41 789.659 269.287 790.139C269.189 790.522 269.031 790.906 268.824 791.325C268.567 791.841 268.22 792.437 267.794 793.169C267.54 793.604 267.259 794.087 266.953 794.629C265.864 796.555 265.933 799.117 266.339 801.366C266.666 803.172 267.194 804.706 267.462 805.483C267.519 805.647 267.564 805.778 267.593 805.87C269.659 809.881 272.822 810.541 277.265 811.13C281.701 811.719 286.817 811.078 291.163 810.592C295.509 810.106 295.99 808.108 296.1 806.59C296.127 806.495 296.193 806.416 296.282 806.372L296.441 806.689C296.282 806.372 296.282 806.372 296.282 806.372L296.286 806.37L296.298 806.364L296.344 806.341C296.384 806.322 296.444 806.292 296.522 806.255C296.679 806.179 296.911 806.07 297.213 805.932C297.816 805.655 298.698 805.266 299.816 804.809C302.051 803.896 305.232 802.717 309.015 801.649C310.87 801.125 312.195 800.467 312.831 799.781C313.452 799.111 313.599 798.403 313.432 797.694C313.26 796.962 312.568 796.197 311.799 795.479C311.035 794.765 310.043 794.12 308.963 793.624C305.785 792.162 304.461 791.134 302.941 789.954C302.609 789.696 302.267 789.431 301.895 789.153C301.532 788.881 300.345 788.008 299.126 786.911C297.921 785.827 296.628 784.477 296.107 783.244C295.585 782.011 295.59 780.855 295.715 779.774C295.758 779.406 295.816 779.036 295.872 778.679C295.898 778.518 295.922 778.359 295.945 778.204C296.021 777.695 296.079 777.206 296.079 776.722C296.079 774.703 295.051 772.356 294.603 771.372C294.526 771.203 294.457 770.891 294.391 770.521C294.322 770.135 294.249 769.637 294.174 769.062C294.025 767.91 293.868 766.434 293.725 764.886C293.439 761.794 293.207 758.388 293.207 756.685C293.222 750.919 294.742 738.679 296.508 726.279C298.001 715.797 299.673 705.176 300.771 698.203C300.973 696.919 301.155 695.76 301.314 694.747C301.599 692.926 301.936 690.803 302.309 688.461C302.707 685.958 303.145 683.203 303.601 680.295C305.776 666.452 308.383 649.083 309.201 638.388C309.774 630.899 308.297 618.971 306.689 608.524C306.035 604.278 305.361 600.285 304.798 596.945C304.669 596.182 304.546 595.453 304.43 594.762C304.119 592.907 303.861 591.331 303.685 590.129C303.598 589.528 303.53 589.017 303.488 588.611C303.446 588.211 303.425 587.89 303.438 587.68C303.615 584.845 304.235 574.04 304.058 563.504C303.97 558.262 303.332 555.274 302.738 552.741C302.699 552.576 302.66 552.414 302.622 552.252C302.069 549.914 301.58 547.846 301.664 544.605C301.746 541.463 302.73 537.57 303.998 533.424C304.582 531.512 305.23 529.538 305.882 527.552L306.051 527.037C306.76 524.875 307.468 522.703 308.103 520.575C308.37 519.682 308.623 518.797 308.858 517.924C311.331 508.739 312.304 498.573 312.481 491.233C312.532 489.095 312.702 485.649 312.914 481.365C313.433 470.843 314.203 455.267 314.077 441.596C313.952 428.094 310.766 404.047 308.613 389.869C308.317 387.922 308.041 386.162 307.795 384.642C307.794 384.631 307.793 384.621 307.792 384.61C307.667 382.84 307.488 381.277 307.266 379.76C306.992 377.882 306.652 376.078 306.269 374.036C306.15 373.408 306.028 372.758 305.902 372.076C305.367 369.179 304.769 365.728 304.159 361.048C303.365 354.958 302.085 350.414 301.003 346.99C300.782 346.292 300.569 345.637 300.368 345.023C300.079 344.138 299.819 343.339 299.607 342.626C299.249 341.418 299.014 340.4 299.014 339.547C299.014 338.084 299.088 336.544 299.185 334.527C299.232 333.546 299.285 332.451 299.337 331.198C299.413 329.374 299.489 327.208 299.546 324.556C299.633 320.478 298.866 316.57 298.067 312.553L298.041 312.419C297.252 308.454 296.443 304.385 296.443 300.005C296.443 296.306 296.725 292.705 297.078 289.504C297.345 287.075 297.655 284.872 297.913 283.035C297.956 282.724 297.998 282.424 298.039 282.135C298.195 281.013 298.322 280.062 298.395 279.313C298.745 275.722 300.115 272.814 301.486 269.903L301.495 269.883L301.619 269.621C301.798 269.24 301.96 268.902 302.108 268.593C302.552 267.667 302.876 266.99 303.203 266.123C303.639 264.968 304.078 263.478 304.787 260.643C305.503 257.78 307.26 253.081 309.104 248.267C309.39 247.52 309.679 246.769 309.966 246.022C311.535 241.943 313.066 237.961 314 235.086C314.048 234.937 314.188 234.838 314.344 234.841C314.5 234.844 314.636 234.949 314.679 235.099C318.256 247.782 324.368 259.176 332.389 272.784C332.402 272.805 332.412 272.828 332.42 272.852C332.426 272.869 332.43 272.887 332.433 272.905C332.965 276.035 334.489 284.673 336.333 294.174C336.475 294.907 336.641 295.671 336.83 296.465C339.698 308.457 347.947 326.992 360.559 343.588C373.453 360.553 378.085 370.231 379.56 373.315C379.629 373.459 379.691 373.588 379.746 373.703C380.523 375.313 381.41 377.592 382.286 379.846C382.814 381.204 383.338 382.552 383.833 383.74C385.139 386.875 384.862 388.8 384.299 392.713C384.27 392.911 384.241 393.115 384.211 393.324C383.909 395.438 384.166 397.808 384.608 400.259C384.816 401.411 385.062 402.574 385.308 403.732L385.354 403.947C385.614 405.174 385.871 406.394 386.072 407.577C386.47 409.923 387.136 412.807 387.824 415.346C388.509 417.873 389.207 420.019 389.674 420.954C390.171 421.947 390.93 423.825 391.595 425.598C392.257 427.364 392.844 429.075 392.984 429.727C393.112 430.325 393.946 433.005 394.815 435.71C395.681 438.409 396.564 441.078 396.781 441.643C396.845 441.811 396.94 442.113 397.061 442.496C397.153 442.791 397.261 443.133 397.381 443.497C397.663 444.355 398.027 445.381 398.468 446.356C398.912 447.336 399.423 448.242 399.993 448.877C400.565 449.515 401.141 449.821 401.728 449.752C402.761 449.63 403.375 449.261 403.748 448.766C404.131 448.258 404.303 447.565 404.34 446.719C404.367 446.107 404.324 445.436 404.253 444.731C404.135 443.549 403.744 441.791 403.314 440.083C402.948 438.631 402.561 437.241 402.297 436.295C402.19 435.912 402.104 435.602 402.047 435.389C401.872 434.732 401.657 433.561 401.445 432.404L401.42 432.27C401.197 431.053 400.979 429.878 400.807 429.278C400.739 429.04 400.606 428.646 400.439 428.154C400.396 428.027 400.351 427.894 400.304 427.755C400.078 427.085 399.818 426.3 399.6 425.544C399.383 424.793 399.201 424.051 399.138 423.471C399.107 423.185 399.101 422.909 399.15 422.683C399.198 422.461 399.325 422.185 399.637 422.1C399.882 422.033 400.109 422.102 400.291 422.223C400.465 422.338 400.616 422.511 400.748 422.699C401.013 423.079 401.26 423.615 401.49 424.196C401.786 424.948 402.073 425.835 402.332 426.635C402.472 427.068 402.604 427.475 402.725 427.823C403.442 429.886 404.688 435.227 405.042 436.909C405.215 437.734 405.764 439.599 406.343 441.559L406.411 441.79C406.964 443.663 407.53 445.577 407.788 446.652C407.847 446.896 407.917 447.235 408.003 447.648C408.204 448.614 408.49 449.985 408.902 451.484C409.488 453.614 410.31 455.915 411.446 457.499C412.399 458.827 413.515 459.577 414.848 459.416C415.793 459.302 416.416 458.871 416.827 458.239C417.25 457.591 417.466 456.704 417.526 455.669C417.682 452.972 416.774 449.544 416.234 447.506C416.168 447.256 416.107 447.027 416.054 446.823C415.65 445.252 415.426 443.817 415.194 442.232C415.172 442.087 415.151 441.941 415.129 441.793C414.915 440.323 414.678 438.702 414.277 436.697C413.837 434.496 412.931 431.094 412.1 428.169C411.685 426.708 411.29 425.37 410.982 424.364C410.827 423.861 410.696 423.442 410.594 423.133C410.544 422.979 410.501 422.854 410.468 422.76C410.451 422.713 410.437 422.676 410.426 422.647C410.42 422.633 410.415 422.622 410.412 422.613C410.408 422.604 410.406 422.601 410.406 422.601C410.29 422.369 410.296 422.126 410.396 421.919C410.49 421.723 410.656 421.581 410.831 421.494C411.171 421.323 411.68 421.302 412.038 421.66C412.131 421.753 412.212 421.882 412.282 422.013C412.32 422.083 412.359 422.161 412.398 422.245C412.435 422.326 412.473 422.412 412.511 422.504C412.668 422.879 412.843 423.362 413.032 423.912C413.148 424.25 413.27 424.616 413.398 425.001C413.478 425.244 413.561 425.495 413.645 425.752C413.864 426.415 414.096 427.117 414.339 427.824C414.834 429.263 415.814 433.23 416.71 436.989C417.218 439.124 417.701 441.197 418.056 442.723C418.329 443.896 418.527 444.745 418.604 445.053C418.784 445.776 419.075 447.342 419.373 448.953C419.673 450.575 419.982 452.251 420.201 453.217C420.637 455.134 421.688 457.583 422.025 458.173C422.076 458.262 422.144 458.375 422.233 458.501C422.715 459.196 423.768 460.3 425.707 460.3C426.517 460.3 427.097 460.021 427.524 459.525C427.965 459.014 428.268 458.244 428.444 457.225C428.575 456.471 428.633 455.598 428.633 454.626C428.633 452.845 428.306 450.812 427.908 448.844C427.733 447.978 427.542 447.114 427.36 446.295C427.134 445.277 426.924 444.326 426.777 443.518C426.527 442.146 426.413 441.1 426.3 440.071L426.274 439.836C426.153 438.732 426.021 437.613 425.714 436.077C425.406 434.539 424.59 431.427 423.791 428.452C423.545 427.537 423.301 426.634 423.074 425.797C422.567 423.924 422.147 422.374 421.993 421.727C421.778 420.824 421.432 419.914 421.116 419.194C420.796 418.467 420.518 417.958 420.447 417.852C420.306 417.64 420.358 417.399 420.41 417.261C420.47 417.103 420.576 416.95 420.708 416.834C420.837 416.721 421.033 416.609 421.269 416.628C421.524 416.648 421.72 416.812 421.848 417.036C422.042 417.375 422.295 417.979 422.693 419.05C423.093 420.129 423.648 421.706 424.446 424.011C424.881 425.268 425.355 426.733 425.822 428.221C426.575 430.626 427.305 433.077 427.825 434.819C428.17 435.98 428.423 436.826 428.526 437.136C428.658 437.531 428.848 438.454 429.044 439.487C429.232 440.481 429.432 441.608 429.598 442.543C429.767 443.488 429.898 444.216 429.952 444.432C429.959 444.46 429.967 444.494 429.977 444.534C430.133 445.182 430.675 447.424 431.993 448.989C432.79 449.936 433.847 450.607 435.267 450.548C435.935 450.52 436.435 450.334 436.816 450.054C437.198 449.772 437.481 449.378 437.687 448.9C438.085 447.973 438.173 446.777 438.144 445.633C438.13 445.067 438.088 444.524 438.044 444.046C438.002 443.576 437.957 443.152 437.942 442.852C437.855 441.109 436.975 436.175 436.264 432.439C435.556 428.725 434.14 422.794 433.342 419.603C433.251 419.236 433.143 418.801 433.022 418.314C432.086 414.54 430.366 407.607 429.274 404.565C428.289 401.819 426.338 397.37 425.478 395.472L423.969 392.736C423.874 392.564 423.936 392.349 424.108 392.254C424.279 392.159 424.495 392.222 424.59 392.393L426.01 394.967C426.693 395.02 427.617 395.309 428.488 395.66C429.466 396.053 430.445 396.553 431.051 396.972C431.6 397.352 432.003 397.846 432.433 398.373C432.494 398.448 432.556 398.524 432.619 398.6C433.131 399.221 433.753 399.929 434.786 400.703C435.799 401.463 437.231 402.065 438.749 402.345C440.267 402.625 441.837 402.577 443.133 402.075C443.993 401.742 444.501 401.19 444.771 400.578C445.031 399.988 445.077 399.326 444.975 398.727C444.871 398.122 444.624 397.62 444.34 397.337C443.826 396.822 443.2 396.325 442.589 395.847L442.452 395.74C441.898 395.308 441.358 394.886 440.971 394.5C440.797 394.326 440.665 394.159 440.559 393.993C440.384 393.719 440.287 393.449 440.199 393.204C440.181 393.153 440.163 393.104 440.145 393.056C440.037 392.768 439.903 392.46 439.609 392.068C438.837 391.039 437.267 389.553 436.038 388.588C435.445 388.122 434.497 387.581 433.507 387.047C433.218 386.891 432.925 386.736 432.639 386.584C431.961 386.224 431.318 385.883 430.844 385.599C430.137 385.174 429.533 384.591 428.969 384.027C428.913 383.971 428.857 383.915 428.802 383.859C428.29 383.346 427.807 382.861 427.274 382.48C426.054 381.608 422.974 379.76 419.808 378.44L419.807 378.44C418.883 378.053 416.894 377.24 416.207 377.034C415.756 376.899 414.372 376.452 412.997 375.905C412.31 375.631 411.618 375.329 411.044 375.026C410.757 374.874 410.494 374.719 410.274 374.564C410.057 374.412 409.863 374.247 409.731 374.07C409.685 374.009 409.633 373.92 409.577 373.815C409.544 373.752 409.51 373.682 409.474 373.609C409.375 373.403 409.254 373.135 409.115 372.813C408.837 372.169 408.481 371.3 408.069 370.26C407.245 368.18 406.191 365.41 405.071 362.377C402.832 356.313 400.325 349.191 398.859 344.439C397.517 340.087 396.362 334.072 395.026 327.114C394.899 326.45 394.77 325.777 394.638 325.096C393.131 317.272 391.361 308.374 388.838 299.302C384.211 282.662 379.961 274.82 376.281 268.028C375.95 267.417 375.624 266.815 375.302 266.216C374.422 264.576 373.657 263.231 372.983 262.045C370.684 258.002 369.439 255.814 368.263 250.072C367.275 245.247 364.828 238.306 362.76 232.441C362.315 231.18 361.888 229.969 361.497 228.839C360.948 227.255 360.47 225.831 360.115 224.659C359.417 222.356 357.689 218.794 355.797 215.255C353.909 211.724 351.874 208.246 350.576 206.123C350.547 206.074 350.529 206.019 350.525 205.962C350.377 203.768 350.081 197.826 350.081 191.575C350.081 183.776 349.367 168.804 341.809 157.73C338.271 152.547 335.381 149.495 332.284 147.292C329.181 145.086 325.852 143.717 321.391 141.921C320.739 141.659 320.063 141.387 319.361 141.102C314.254 139.033 310.804 138.418 307.371 137.888C307.115 137.849 306.859 137.81 306.602 137.771C303.406 137.283 300.109 136.78 295.44 135.169C285.408 131.706 276.963 127.885 272.06 125.033C269.621 123.614 267.255 122.164 265.473 120.797C264.583 120.113 263.827 119.442 263.279 118.797C262.737 118.159 262.364 117.508 262.31 116.865C262.262 116.282 262.24 114.411 262.233 111.961C262.22 107.013 262.27 99.6117 262.309 95.2887C262.31 95.2096 262.337 95.133 262.386 95.0711C262.788 94.5664 263.125 93.827 263.408 92.9401C263.689 92.0582 263.908 91.0559 264.084 90.0444C264.26 89.0338 264.393 88.0213 264.505 87.1195C264.53 86.9163 264.554 86.718 264.577 86.5264C264.656 85.8734 264.726 85.2977 264.796 84.8628C264.946 83.927 265.015 83.0566 265.067 82.4038C265.076 82.2952 265.084 82.1925 265.092 82.0966C265.118 81.7796 265.145 81.4941 265.191 81.331C265.203 81.2899 265.225 81.2225 265.268 81.1597C265.309 81.0992 265.439 80.9535 265.655 80.9913C265.815 81.0195 265.9 81.1378 265.922 81.1689C265.957 81.2184 265.983 81.2735 266.004 81.3214C266.016 81.3493 266.028 81.3774 266.04 81.4055C266.167 81.7067 266.302 82.024 266.601 82.315C266.921 82.6262 267.464 82.9339 268.47 83.0597C268.838 83.1057 269.232 82.9233 269.673 82.4626C270.111 82.0053 270.539 81.3309 270.962 80.5403C271.348 79.8189 271.718 79.023 272.082 78.2397L272.182 78.0255C272.575 77.1805 272.965 76.356 273.351 75.6963C274.074 74.4631 274.708 72.405 275.183 70.1075C275.656 67.82 275.964 65.3344 276.051 63.271C276.091 62.3323 276.025 61.5422 275.879 60.8796C275.639 59.7811 275.182 59.0308 274.63 58.524C274.076 58.0156 273.405 57.7332 272.707 57.6062C272.096 57.495 271.513 57.7992 270.997 58.3204C270.485 58.837 270.1 59.5095 269.906 59.9669C269.837 60.1279 269.662 60.215 269.492 60.1723C269.323 60.1296 269.21 59.9698 269.226 59.7957C269.506 56.775 269.815 51.8961 269.834 47.0846C269.852 42.2567 269.577 37.552 268.709 34.8463C267.616 31.4349 264.562 25.1033 259.034 19.6299C253.513 14.1637 245.531 9.55895 234.559 9.55895C234.556 9.55895 234.553 9.55892 234.55 9.55884C234.547 9.55892 234.544 9.55895 234.54 9.55895C223.568 9.55895 215.586 14.1637 210.065 19.6299Z" fill="white"/>
<path d="M43.3036 395.313C42.0624 395.313 39.4026 396.465 38.2501 397.263C37.0975 398.061 36.6542 399.391 34.5264 400.987C32.3986 402.583 28.5863 403.469 25.8379 402.406C24.8904 402.039 24.3117 401.419 24.0037 400.721M43.3036 395.313C42.4466 397.204 40.4843 401.679 39.4913 404.445C38.2501 407.902 36.2109 416.325 35.413 419.517C34.6151 422.708 33.1965 428.649 32.4873 432.372C31.778 436.096 30.8914 441.061 30.8028 442.834C30.7445 443.999 30.2266 447.041 31.0867 449.04M43.3036 395.313L44.82 392.564M154.762 235.195C156.978 242.022 162.55 255.055 163.968 260.729C165.387 266.403 165.741 266.758 167.16 269.772L167.283 270.034C168.66 272.957 170.007 275.818 170.351 279.347C170.425 280.105 170.553 281.063 170.709 282.184C170.988 284.187 171.357 286.71 171.669 289.543M154.762 235.195C151.171 247.926 145.039 259.354 137.016 272.964C136.484 276.097 134.959 284.738 133.115 294.242C132.972 294.98 132.804 295.749 132.614 296.547M154.762 235.195C152.796 230.94 147.575 222.162 141.901 207.534C139.475 201.278 135.784 189.207 135.784 183.596M118.22 205.938C115.62 210.194 110.064 219.875 108.645 224.556C108.292 225.722 107.816 227.14 107.267 228.723M118.22 205.938C118.368 203.751 118.663 197.817 118.663 191.575C118.663 183.773 119.373 168.701 126.997 157.53C134.102 147.122 138.666 145.18 147.575 141.592C148.228 141.33 148.904 141.058 149.605 140.774C159.89 136.607 163.525 138.291 173.543 134.834C183.562 131.376 191.984 127.564 196.86 124.727C201.737 121.89 206.258 118.964 206.436 116.836C206.483 116.271 206.505 114.419 206.512 111.96C206.525 107.014 206.475 99.6147 206.436 95.2919M118.22 205.938C120.026 202.598 124.152 195.37 126.209 193.171M199.52 59.8285C199.106 58.8532 197.889 56.9736 196.328 57.2574C194.829 57.53 193.382 58.4838 192.873 60.8037C192.72 61.5014 192.652 62.3227 192.693 63.2861C192.871 67.4531 193.935 73.3046 195.442 75.8757C196.949 78.4468 198.545 83.6776 200.673 83.4117C202.801 83.1457 203.155 82.0818 203.421 81.4612C203.687 80.8406 203.598 82.7024 203.953 84.9189C204.308 87.1353 204.672 93.0755 206.436 95.2919M199.52 59.8285C198.959 53.7701 198.279 40.2703 200.052 34.738C202.269 27.8227 212.376 9.20435 234.54 9.20435M199.52 59.8285L201.214 71.0881M206.436 95.2919C205.641 87.6082 205.257 70.8399 210.08 65.2366M201.835 806.009C202.1 805.123 204.76 798.533 202.455 794.454C201.622 792.98 200.997 791.98 200.593 791.167M234.55 414.729C234.55 449.927 232.028 459.324 231.978 460.122C231.929 460.92 227.9 482.287 226.127 490.976C225.592 493.595 224.736 497.374 223.79 501.526L223.574 502.472C223.261 503.846 222.94 505.254 222.62 506.668M234.55 414.729C234.55 433.968 230.56 439.323 221.339 444.518C214.793 448.207 195.451 451.522 184.546 448.419C176.797 446.214 170.893 440.263 168.144 433.968M234.55 414.729V390.437M234.55 414.729C234.55 449.927 237.071 459.324 237.121 460.122C237.17 460.92 241.199 482.287 242.972 490.976C243.507 493.595 244.363 497.374 245.309 501.526L245.525 502.472C245.838 503.846 246.159 505.254 246.479 506.668M234.55 414.729C234.55 433.968 238.539 439.323 247.76 444.518C254.306 448.207 273.648 451.522 284.553 448.419C292.302 446.214 298.206 440.263 300.955 433.968M200.593 791.167C200.392 790.761 200.245 790.401 200.155 790.051M200.593 791.167C200.432 790.803 200.287 790.431 200.155 790.051M200.155 790.051C199.928 789.165 199.628 785.775 200.155 784.436C200.683 783.096 200.593 780.092 200.593 777.786C200.593 776.013 199.441 772.205 199.065 770.073C198.627 767.591 199.175 767.325 198.909 762.537C198.643 757.75 198.731 741.968 198.909 731.684C199.086 721.399 202.012 697.55 207.243 681.414C208.702 676.913 209.733 672.605 210.441 668.47M52.7014 409.144C55.725 408.434 56.3884 408.878 57.9415 410.296M42.1511 407.459C43.5431 407.341 45.2083 407.016 46.7613 408.434M63.2518 411.892C64.6439 411.774 66.3977 411.449 67.9507 412.867M73.1021 414.729C74.4942 414.611 75.8047 414.463 77.3577 415.882M234.55 390.437C234.55 382.723 226.836 377.847 222.137 367.208M234.55 390.437C234.55 382.723 242.263 377.847 246.962 367.208M171.669 289.543C172.021 292.736 172.302 296.324 172.302 300.005C172.302 308.782 169.022 316.318 169.199 324.563C169.256 327.219 169.332 329.387 169.408 331.213C169.568 335.056 169.731 337.383 169.731 339.547C169.731 342.738 166.185 348.767 164.589 361.002C163.37 370.347 162.202 374.779 161.482 379.709C161.259 381.233 161.079 382.805 160.954 384.585C160.708 386.106 160.431 387.868 160.135 389.816M171.669 289.543C172.238 299.443 174.492 320.964 178.961 327.844M160.135 389.816C157.983 403.991 154.793 428.061 154.668 441.593C154.491 460.832 156.087 483.883 156.264 491.242C156.441 498.6 157.417 508.796 159.899 518.016C160.135 518.893 160.389 519.781 160.656 520.676C163.201 529.208 166.92 538.436 167.08 544.614C167.258 551.441 164.864 552.948 164.687 563.498C164.509 574.049 165.13 584.865 165.307 587.702C165.484 590.539 158.392 623.343 159.544 638.415C160.363 649.127 162.974 666.51 165.148 680.351M160.135 389.816C160.79 385.631 170.299 371.464 174.971 364.903M132.614 296.547C129.733 308.592 121.461 327.172 108.822 343.802C95.3463 361.534 90.9133 371.286 89.6721 373.857C88.4309 376.429 86.9237 380.684 85.5938 383.876C84.2639 387.068 84.6186 388.929 85.2392 393.274C85.8598 397.618 84.1753 402.938 83.3773 407.636C82.9766 409.996 82.3076 412.892 81.6173 415.438C80.933 417.962 80.2278 420.142 79.7423 421.113C78.7671 423.063 76.7279 428.56 76.462 429.801C76.196 431.042 73.0929 440.617 72.6496 441.77C72.2064 442.923 70.3445 450.459 67.3301 450.104C65.1203 449.844 64.4828 448.488 64.4048 446.735M132.614 296.547C133.948 289.809 133.17 281.032 132.614 277.485M98.9813 284.312C100.488 288.213 104.833 289.1 108.645 287.77M234.54 54.9522C230.383 55.1295 225.418 55.2182 221.428 56.6367M107.267 228.723C105.063 235.088 101.695 244.108 100.488 250.001C98.9813 257.36 97.3854 258.779 93.4844 266.049C89.5835 273.319 84.9732 281.032 79.9197 299.207C74.8661 317.382 72.827 334.848 69.9012 344.334C66.9755 353.821 59.8828 372.794 59.0849 373.857C58.2869 374.921 53.6767 376.429 52.7901 376.695C52.0808 376.907 50.0712 377.729 49.1551 378.113C45.9634 379.443 42.8603 381.305 41.6191 382.191C40.3779 383.078 39.4026 384.497 38.0728 385.294C36.7429 386.092 34.0831 387.334 32.8419 388.309C31.6007 389.284 30.0048 390.791 29.2069 391.855C28.5661 392.71 28.6114 393.221 28.2408 393.803M107.267 228.723C105.374 234.115 105.89 241.756 107.267 244.593M131.794 225.532C127.326 230.071 121.179 240.131 118.663 244.593M154.762 191.575C166.19 196.629 161.579 202.746 187.566 209.218M216.818 154.782C226.748 183.596 227.989 191.575 212.828 216.666M224.974 307.541C223.822 312.683 219.744 318.091 212.828 320.308M59.0849 398.593L65.7434 383.876M68.4919 399.214L69.6444 393.628M24.0037 400.721C23.4182 399.394 23.8108 397.783 24.508 397.086C25.5719 396.022 27.0791 395.047 27.877 394.249C28.0341 394.092 28.15 393.945 28.2408 393.803M24.0037 400.721C24.6181 400.987 26.0244 401.537 26.7336 401.608C27.6202 401.696 30.9006 398.15 30.9892 397.707C31.0779 397.263 31.7872 394.243 28.2408 393.803M31.0867 449.04C31.5352 450.082 32.3585 450.841 33.8171 450.902C35.3768 450.967 36.5316 450.222 37.3775 449.217M31.0867 449.04C31.1724 447.917 31.3793 445.529 31.5212 444.962C31.6985 444.252 33.0284 443.366 34.6243 443.543C36.2201 443.721 37.284 444.43 37.7273 445.405C38.0819 446.185 37.6419 448.272 37.3775 449.217M37.3775 449.217C38.8397 447.481 39.379 444.968 39.4913 444.518C39.6075 444.054 40.0279 441.535 40.4039 439.554C40.6019 438.51 40.7875 437.615 40.9098 437.248C41.1681 436.474 42.3671 432.312 43.6161 428.327C44.0819 426.841 44.5546 425.379 44.9881 424.127C46.584 419.517 47.2046 417.832 47.5592 417.212C47.9139 416.591 48.5345 417.389 48.3572 417.655C48.1799 417.921 47.2046 419.783 46.7613 421.645C46.318 423.506 43.6583 432.904 43.0377 436.007C42.417 439.11 42.5057 440.529 41.9737 443.455C41.4418 446.38 40.1119 450.991 40.1119 454.626C40.1119 455.611 40.1706 456.505 40.3055 457.285M40.3055 457.285C40.6684 459.383 41.5828 460.654 43.3923 460.654C45.4903 460.654 46.6385 459.451 47.1578 458.704M40.3055 457.285C40.4805 455.896 40.7417 453.633 41.0963 452.852C41.5396 451.877 42.6035 450.725 44.7313 450.813C46.8592 450.902 47.8344 453.207 47.8344 453.739C47.8344 454.271 48.0771 454.537 47.1578 458.704M47.1578 458.704C47.253 458.567 47.327 458.445 47.3819 458.349C47.7366 457.729 48.8005 455.246 49.2438 453.296C49.6871 451.345 50.485 446.558 50.8396 445.139C51.1942 443.721 54.12 430.776 55.0952 427.939C56.0705 425.102 56.8684 422.354 57.3117 421.91C57.755 421.467 58.6416 421.91 58.3756 422.442C58.1096 422.974 55.3612 432.195 54.4746 436.628C53.588 441.061 53.4994 443.632 52.7014 446.735C52.2286 448.574 51.0398 452.591 51.2195 455.689M51.2195 455.689C51.343 457.82 52.1135 459.515 54.2086 459.768C55.7292 459.951 56.9551 459.081 57.9415 457.706M51.2195 455.689C51.4831 454.921 51.9023 453.136 52.1787 452.143C52.5241 450.902 53.9278 449.915 55.8137 450.104C57.5868 450.281 58.8217 451.434 58.9167 452.764C59.0117 454.094 58.3848 456.264 57.9415 457.706M57.9415 457.706C60.2909 454.431 61.2813 448.296 61.656 446.735C62.1879 444.518 64.0498 438.667 64.4044 436.982C64.759 435.298 66.0002 429.978 66.7095 427.939C67.4188 425.9 68.394 422.176 69.3693 422.442C70.3445 422.708 68.3054 427.939 67.9507 429.18C67.5961 430.422 67.0641 433.968 66.7095 435.298C66.5164 436.022 65.9551 437.956 65.441 439.997C65.0111 441.703 64.6142 443.485 64.493 444.696C64.4221 445.406 64.3763 446.097 64.4048 446.735M64.4048 446.735C64.5972 445.996 65.0279 444.412 65.2115 443.986C65.441 443.455 66.5414 442.568 68.2259 442.923C69.9104 443.277 70.4296 444.328 70.531 445.139C70.6197 445.848 70.4424 446.735 69.5558 448.896M172.659 806.689C172.659 806.689 167.524 804.118 159.988 801.99C152.452 799.862 155.555 795.341 159.988 793.302C163.819 791.539 164.904 790.43 166.992 788.869C167.719 788.324 171.691 785.411 172.666 783.106C173.641 780.801 172.666 778.762 172.666 776.722C172.666 774.615 173.73 772.201 174.173 771.226C174.616 770.25 175.538 760.055 175.538 756.686C175.508 745.214 169.474 707.835 167.435 694.802C166.845 691.031 166.032 685.985 165.148 680.351M179.315 789.401C175.414 795.863 167.116 809.739 177.897 810.945C191.373 812.452 212.03 812.895 197.756 789.401C194.476 785.234 194.033 756.952 195.185 751.189M184.457 756.686C187.169 767.112 185.561 776.134 183.168 782.308M165.148 680.351C168.233 695.777 171.07 697.373 175.148 701.274M201.48 565.715C205.292 574.758 198.199 590.983 203.696 603.395M176.744 571.655C177.542 575.851 178.606 585.131 175.148 592.046M210.441 668.47C212.27 657.785 211.935 648.261 211.232 639.568C210.257 627.51 204.583 612.172 206.711 600.912C208.839 589.653 212.917 582.56 213.803 575.645C214.69 568.729 214.247 553.214 215.045 550.554C215.267 549.812 215.622 548.046 216.024 545.767C217.063 539.883 218.424 530.578 218.68 526.616C218.884 523.443 220.744 514.952 222.62 506.668M210.441 668.47C208.129 680.616 201.037 695.866 192.525 697.816M222.62 506.668C218.68 520.676 205.026 525.73 201.48 526.616M234.54 344.334V161.077M425.795 395.313C427.037 395.313 429.696 396.465 430.849 397.263C432.002 398.061 432.445 399.391 434.573 400.987C436.7 402.583 440.513 403.469 443.261 402.406C444.209 402.039 444.787 401.419 445.095 400.721M425.795 395.313C426.653 397.204 428.615 401.679 429.608 404.445C430.849 407.902 432.888 416.325 433.686 419.517C434.484 422.708 435.903 428.649 436.612 432.372C437.321 436.096 438.208 441.061 438.296 442.834C438.355 443.999 438.872 447.041 438.012 449.04M425.795 395.313L424.279 392.564M314.337 235.195C312.121 242.022 306.55 255.055 305.131 260.729C303.712 266.403 303.358 266.758 301.939 269.772L301.816 270.034C300.439 272.957 299.092 275.818 298.748 279.347C298.674 280.105 298.546 281.063 298.39 282.184C298.111 284.187 297.742 286.71 297.43 289.543M314.337 235.195C317.928 247.926 324.06 259.354 332.083 272.964C332.615 276.097 334.14 284.738 335.984 294.242C336.127 294.98 336.295 295.749 336.485 296.547M314.337 235.195C316.303 230.94 321.524 222.162 327.198 207.534C329.624 201.278 333.315 189.207 333.315 183.596M350.879 205.938C353.48 210.194 359.035 219.875 360.454 224.556C360.807 225.722 361.283 227.14 361.832 228.723M350.879 205.938C350.731 203.751 350.436 197.817 350.436 191.575C350.436 183.773 349.726 168.701 342.102 157.53C334.997 147.122 330.433 145.18 321.524 141.592C320.871 141.33 320.195 141.058 319.494 140.774C309.209 136.607 305.574 138.291 295.556 134.834C285.537 131.376 277.115 127.564 272.239 124.727C267.362 121.89 262.841 118.964 262.664 116.836C262.616 116.271 262.594 114.419 262.587 111.96C262.574 107.014 262.624 99.6147 262.664 95.2919M350.879 205.938C349.073 202.598 344.947 195.37 342.89 193.171M269.579 59.8285C269.993 58.8532 271.21 56.9736 272.771 57.2574C274.27 57.53 275.717 58.4838 276.226 60.8037C276.379 61.5014 276.447 62.3227 276.406 63.2861C276.228 67.4531 275.164 73.3046 273.657 75.8757C272.15 78.4468 270.554 83.6776 268.426 83.4117C266.299 83.1457 265.944 82.0818 265.678 81.4612C265.412 80.8406 265.501 82.7024 265.146 84.9189C264.791 87.1353 264.428 93.0755 262.664 95.2919M269.579 59.8285C270.14 53.7701 270.82 40.2703 269.047 34.738C266.83 27.8227 256.723 9.20435 234.559 9.20435M269.579 59.8285L267.885 71.0881M262.664 95.2919C263.458 87.6082 263.842 70.8399 259.019 65.2366M267.265 806.009C266.999 805.123 264.339 798.533 266.644 794.454C267.477 792.98 268.102 791.98 268.506 791.167M268.506 791.167C268.708 790.761 268.854 790.401 268.944 790.051M268.506 791.167C268.667 790.803 268.812 790.431 268.944 790.051M268.944 790.051C269.171 789.165 269.471 785.775 268.944 784.436C268.416 783.096 268.506 780.092 268.506 777.786C268.506 776.013 269.658 772.205 270.034 770.073C270.472 767.591 269.924 767.325 270.19 762.537C270.456 757.75 270.368 741.968 270.19 731.684C270.013 721.399 267.087 697.55 261.856 681.414C260.397 676.913 259.366 672.605 258.658 668.47M416.398 409.144C413.374 408.434 412.711 408.878 411.158 410.296M426.948 407.459C425.556 407.341 423.891 407.016 422.338 408.434M405.847 411.892C404.455 411.774 402.701 411.449 401.148 412.867M395.997 414.729C394.605 414.611 393.294 414.463 391.741 415.882M297.43 289.543C297.078 292.736 296.797 296.324 296.797 300.005C296.797 308.782 300.077 316.318 299.9 324.563C299.843 327.219 299.768 329.387 299.691 331.213C299.531 335.056 299.368 337.383 299.368 339.547C299.368 342.738 302.915 348.767 304.51 361.002C305.729 370.347 306.897 374.779 307.617 379.709C307.84 381.233 308.02 382.805 308.145 384.585C308.391 386.106 308.668 387.868 308.964 389.816M297.43 289.543C296.861 299.443 294.607 320.964 290.139 327.844M308.964 389.816C311.116 403.991 314.306 428.061 314.431 441.593C314.608 460.832 313.012 483.883 312.835 491.242C312.658 498.6 311.683 508.796 309.2 518.016C308.964 518.893 308.71 519.781 308.443 520.676C305.898 529.208 302.179 538.436 302.019 544.614C301.841 551.441 304.235 552.948 304.413 563.498C304.59 574.049 303.969 584.865 303.792 587.702C303.615 590.539 310.707 623.343 309.555 638.415C308.736 649.127 306.125 666.51 303.952 680.351M308.964 389.816C308.309 385.631 298.801 371.464 294.128 364.903M336.485 296.547C339.366 308.592 347.638 327.172 360.277 343.802C373.753 361.534 378.186 371.286 379.427 373.857C380.668 376.429 382.175 380.684 383.505 383.876C384.835 387.068 384.481 388.929 383.86 393.274C383.239 397.618 384.924 402.938 385.722 407.636C386.122 409.996 386.791 412.892 387.482 415.438C388.166 417.962 388.871 420.142 389.357 421.113C390.332 423.063 392.371 428.56 392.637 429.801C392.903 431.042 396.006 440.617 396.449 441.77C396.893 442.923 398.755 450.459 401.769 450.104C403.979 449.844 404.616 448.488 404.694 446.735M336.485 296.547C335.151 289.809 335.929 281.032 336.485 277.485M370.118 284.312C368.611 288.213 364.266 289.1 360.454 287.77M234.559 54.9522C238.717 55.1295 243.681 55.2182 247.671 56.6367M361.832 228.723C364.036 235.088 367.404 244.108 368.611 250.001C370.118 257.36 371.714 258.779 375.615 266.049C379.516 273.319 384.126 281.032 389.179 299.207C394.233 317.382 396.272 334.848 399.198 344.334C402.124 353.821 409.216 372.794 410.014 373.857C410.812 374.921 415.422 376.429 416.309 376.695C417.018 376.907 419.028 377.729 419.944 378.113C423.136 379.443 426.239 381.305 427.48 382.191C428.721 383.078 429.696 384.497 431.026 385.294C432.356 386.092 435.016 387.334 436.257 388.309C437.498 389.284 439.094 390.791 439.892 391.855C440.533 392.71 440.488 393.221 440.858 393.803M361.832 228.723C363.725 234.115 363.209 241.756 361.832 244.593M337.305 225.532C341.773 230.071 347.921 240.131 350.436 244.593M314.337 191.575C302.909 196.629 307.52 202.746 281.533 209.218M252.281 154.782C242.352 183.596 241.11 191.575 256.271 216.666M244.125 307.541C245.277 312.683 249.356 318.091 256.271 320.308M410.014 398.593L403.356 383.876M400.607 399.214L399.455 393.628M445.095 400.721C445.681 399.394 445.288 397.783 444.591 397.086C443.527 396.022 442.02 395.047 441.222 394.249C441.065 394.092 440.949 393.945 440.858 393.803M445.095 400.721C444.481 400.987 443.075 401.537 442.365 401.608C441.479 401.696 438.199 398.15 438.11 397.707C438.021 397.263 437.312 394.243 440.858 393.803M438.012 449.04C437.564 450.082 436.741 450.841 435.282 450.902C433.722 450.967 432.567 450.222 431.722 449.217M438.012 449.04C437.927 447.917 437.72 445.529 437.578 444.962C437.401 444.252 436.071 443.366 434.475 443.543C432.879 443.721 431.815 444.43 431.372 445.405C431.017 446.185 431.457 448.272 431.722 449.217M431.722 449.217C430.259 447.481 429.72 444.968 429.608 444.518C429.492 444.054 429.071 441.535 428.695 439.554C428.497 438.51 428.312 437.615 428.189 437.248C427.931 436.474 426.732 432.312 425.483 428.327C425.017 426.841 424.544 425.379 424.111 424.127C422.515 419.517 421.894 417.832 421.54 417.212C421.185 416.591 420.565 417.389 420.742 417.655C420.919 417.921 421.894 419.783 422.338 421.645C422.781 423.506 425.441 432.904 426.061 436.007C426.682 439.11 426.593 440.529 427.125 443.455C427.657 446.38 428.987 450.991 428.987 454.626C428.987 455.611 428.929 456.505 428.794 457.285M428.794 457.285C428.431 459.383 427.516 460.654 425.707 460.654C423.609 460.654 422.461 459.451 421.941 458.704M428.794 457.285C428.619 455.896 428.357 453.633 428.003 452.852C427.559 451.877 426.496 450.725 424.368 450.813C422.24 450.902 421.265 453.207 421.265 453.739C421.265 454.271 421.022 454.537 421.941 458.704M421.941 458.704C421.846 458.567 421.772 458.445 421.717 458.349C421.363 457.729 420.299 455.246 419.855 453.296C419.412 451.345 418.614 446.558 418.259 445.139C417.905 443.721 414.979 430.776 414.004 427.939C413.029 425.102 412.231 422.354 411.787 421.91C411.344 421.467 410.458 421.91 410.724 422.442C410.989 422.974 413.738 432.195 414.624 436.628C415.511 441.061 415.6 443.632 416.398 446.735C416.87 448.574 418.059 452.591 417.88 455.689M417.88 455.689C417.756 457.82 416.986 459.515 414.89 459.768C413.37 459.951 412.144 459.081 411.158 457.706M417.88 455.689C417.616 454.921 417.197 453.136 416.92 452.143C416.575 450.902 415.171 449.915 413.285 450.104C411.512 450.281 410.277 451.434 410.182 452.764C410.087 454.094 410.714 456.264 411.158 457.706M411.158 457.706C408.808 454.431 407.818 448.296 407.443 446.735C406.911 444.518 405.049 438.667 404.695 436.982C404.34 435.298 403.099 429.978 402.39 427.939C401.68 425.9 400.705 422.176 399.73 422.442C398.755 422.708 400.794 427.939 401.148 429.18C401.503 430.422 402.035 433.968 402.39 435.298C402.583 436.022 403.144 437.956 403.658 439.997C404.088 441.703 404.485 443.485 404.606 444.696C404.677 445.406 404.723 446.097 404.694 446.735M404.694 446.735C404.502 445.996 404.071 444.412 403.888 443.986C403.658 443.455 402.558 442.568 400.873 442.923C399.189 443.277 398.669 444.328 398.568 445.139C398.479 445.848 398.657 446.735 399.543 448.896M296.44 806.689C296.44 806.689 301.576 804.118 309.111 801.99C316.647 799.862 313.544 795.341 309.111 793.302C305.28 791.539 304.195 790.43 302.107 788.869C301.38 788.324 297.409 785.411 296.433 783.106C295.458 780.801 296.433 778.762 296.433 776.722C296.433 774.615 295.369 772.201 294.926 771.226C294.483 770.25 293.561 760.055 293.561 756.686C293.591 745.214 299.625 707.835 301.664 694.802C302.254 691.031 303.067 685.985 303.952 680.351M289.784 789.401C293.685 795.863 301.983 809.739 291.202 810.945C277.726 812.452 257.069 812.895 271.343 789.401C274.623 785.234 275.067 756.952 273.914 751.189M284.642 756.686C281.93 767.112 283.538 776.134 285.932 782.308M303.952 680.351C300.866 695.777 298.029 697.373 293.951 701.274M267.619 565.715C263.807 574.758 270.9 590.983 265.403 603.395M292.355 571.655C291.557 575.851 290.493 585.131 293.951 592.046M258.658 668.47C256.829 657.785 257.164 648.261 257.867 639.568C258.842 627.51 264.516 612.172 262.388 600.912C260.261 589.653 256.182 582.56 255.296 575.645C254.409 568.729 254.852 553.214 254.054 550.554C253.832 549.812 253.478 548.046 253.075 545.767C252.036 539.883 250.675 530.578 250.419 526.616C250.215 523.443 248.355 514.952 246.479 506.668M258.658 668.47C260.97 680.616 268.063 695.866 276.574 697.816M246.479 506.668C250.419 520.676 264.073 525.73 267.619 526.616" stroke="black" stroke-linecap="round" stroke-linejoin="round"/>
<path d="M155.552 232.821L155.537 232.904L154.74 237.595L154.727 237.68L154.697 237.762L151.334 247.232L151.319 247.272L151.302 247.311L147.762 255.099L147.748 255.13L147.732 255.159L140.033 269.496L140.012 269.536L139.987 269.573C139.171 270.812 137.899 272.834 136.746 274.857C135.573 276.915 134.59 278.863 134.274 280C133.352 283.32 131.141 287.416 128.373 289.707C125.867 291.78 122.915 294.995 121.726 296.609C121.258 297.244 120.713 297.633 120.167 297.862L121.168 299.697L121.407 300.135L121.2 300.59C120.616 301.875 119.354 304.637 119.061 305.225C118.943 305.46 118.759 305.649 118.638 305.765C118.494 305.903 118.322 306.046 118.142 306.187C117.778 306.471 117.321 306.79 116.843 307.107C115.884 307.743 114.786 308.409 114.067 308.828L113.834 308.964H112.016L111.716 308.582L107.909 303.737C107.316 303.32 106.487 302.722 105.784 302.179C105.41 301.89 105.055 301.605 104.788 301.367C104.657 301.25 104.526 301.125 104.421 301.006C104.369 300.947 104.303 300.866 104.244 300.771C104.207 300.712 104.067 300.487 104.067 300.176C104.067 300.235 104.072 300.236 104.048 300.077C104.029 299.958 104.002 299.795 103.967 299.594C103.896 299.195 103.797 298.667 103.687 298.089C103.466 296.933 103.201 295.591 103.024 294.708L102.993 294.549L103.013 294.387L104.072 285.912C104.111 285.472 104.149 284.984 104.193 284.465C103.979 284.394 103.803 284.283 103.675 284.186C103.454 284.019 103.26 283.808 103.094 283.597C102.759 283.174 102.432 282.62 102.132 282.037C101.527 280.863 100.954 279.416 100.586 278.266C99.8677 276.022 97.9782 268.576 97.7959 263.929V263.928L97.793 263.854C97.6159 259.34 97.5358 257.201 98.8818 251.278C100.224 245.374 104.224 233.291 105.559 229.731C106.613 226.92 107.639 223.81 108.02 222.611L108.04 222.545L108.07 222.483L110.813 216.73L110.823 216.711C111.673 215.027 113.113 212.324 114.682 209.675C116.236 207.048 117.965 204.389 119.391 202.851C120.856 201.271 123.492 199.59 126.081 198.16C128.689 196.719 131.374 195.466 133.069 194.745C135.383 193.61 138.903 191.87 141.97 190.325C143.508 189.55 144.93 188.825 146.026 188.251C147.161 187.657 147.862 187.268 148.04 187.141L148.603 186.74L149.177 187.123L151.831 188.893L152.23 189.159L152.272 189.637L153.579 204.474L153.646 204.394L153.865 206.803L155.547 225.301L155.552 225.345V232.821Z" stroke="#4F46E5" stroke-width="2"/>
<path d="M319.824 187.141C320.001 187.268 320.703 187.656 321.839 188.251C322.935 188.825 324.356 189.55 325.895 190.325C328.964 191.872 332.488 193.614 334.802 194.749C336.497 195.47 339.178 196.721 341.783 198.16C344.372 199.59 347.01 201.271 348.475 202.851C349.9 204.389 351.629 207.048 353.184 209.675C354.36 211.662 355.464 213.679 356.301 215.273L357.041 216.711L357.047 216.72L357.051 216.73L359.795 222.483L359.824 222.545L359.846 222.611C360.226 223.81 361.253 226.92 362.307 229.731C363.642 233.291 367.642 245.374 368.983 251.278C370.329 257.2 370.249 259.34 370.072 263.854L370.069 263.928V263.929C369.887 268.577 367.996 276.022 367.278 278.266C366.91 279.416 366.338 280.863 365.733 282.037C365.433 282.62 365.106 283.174 364.771 283.597C364.605 283.808 364.411 284.019 364.19 284.186C364.065 284.281 363.895 284.387 363.688 284.458C363.722 284.848 363.75 285.217 363.78 285.557L364.841 294.034L364.86 294.194L364.829 294.353C364.652 295.237 364.388 296.58 364.167 297.735C364.057 298.313 363.957 298.842 363.887 299.241C363.851 299.441 363.824 299.604 363.806 299.722C363.793 299.802 363.789 299.842 363.787 299.854L363.786 299.822L363.78 299.934C363.753 300.187 363.641 300.366 363.609 300.418C363.55 300.513 363.484 300.594 363.433 300.652C363.327 300.772 363.196 300.897 363.065 301.013C362.799 301.252 362.444 301.537 362.069 301.826C361.366 302.369 360.536 302.967 359.942 303.385L356.139 308.227L355.838 308.61H354.02L353.786 308.473C353.067 308.054 351.97 307.389 351.012 306.753C350.534 306.436 350.075 306.116 349.712 305.833C349.531 305.692 349.36 305.548 349.217 305.411C349.096 305.295 348.911 305.105 348.794 304.871C348.5 304.283 347.238 301.521 346.653 300.235L346.447 299.781L346.686 299.343L347.531 297.792C347.041 297.556 346.56 297.18 346.14 296.609C344.951 294.995 341.998 291.78 339.492 289.707C336.724 287.416 334.513 283.32 333.591 280C333.275 278.863 332.291 276.916 331.118 274.857C329.966 272.834 328.694 270.812 327.878 269.573L327.854 269.536L327.832 269.496L320.132 255.159L320.116 255.13L320.103 255.099L316.562 247.311L316.545 247.272L316.53 247.232L313.168 237.762L313.139 237.68L313.124 237.595L312.327 232.904L312.313 232.821V225.345L312.317 225.301L313.999 206.803L314.218 204.394L314.284 204.474L315.592 189.637L315.634 189.159L316.033 188.893L318.688 187.123L319.263 186.74L319.824 187.141Z" stroke="#4F46E5" stroke-width="2"/>
<path d="M327.448 146.491C329.855 146.174 332.777 146.468 334.866 148.584L335.534 149.239C337.28 150.99 340.252 154.261 342.035 157.27C349.838 168.703 350.533 184.027 350.533 191.823C350.533 197.981 350.824 203.841 350.972 206.05C351.002 206.512 350.712 206.935 350.27 207.072C349.827 207.209 349.348 207.024 349.112 206.625C347.856 204.502 345.802 202.692 343.142 200.999C340.482 199.305 337.297 197.775 333.844 196.167C328.96 193.894 323.559 191.478 318.647 188.292C317.691 187.672 316.75 187.021 315.834 186.334C309.706 181.746 305.632 177.09 302.076 172.761C298.505 168.413 295.519 164.483 291.488 161.151C290.081 159.988 289.095 158.891 288.563 157.827C288.221 157.141 288.055 156.441 288.115 155.741C288.175 155.037 288.457 154.414 288.878 153.874C289.688 152.832 291.061 152.035 292.642 151.365C295.822 150.015 300.529 148.911 305.354 147.633C311.386 146.037 315.491 146.528 318.283 147.292C319.626 147.66 320.736 148.118 321.387 148.337C321.731 148.453 321.929 148.497 322.044 148.506C322.521 148.093 323.284 147.682 324.141 147.344C325.076 146.975 326.223 146.652 327.448 146.491Z" stroke="#4F46E5" stroke-width="2" stroke-linecap="round" stroke-linejoin="round"/>
<path d="M132.835 148.583C134.921 146.468 137.839 146.174 140.242 146.491C141.465 146.652 142.61 146.975 143.544 147.344C144.398 147.682 145.159 148.091 145.636 148.503C145.75 148.494 145.948 148.451 146.292 148.335C146.942 148.117 148.05 147.659 149.39 147.292C152.177 146.527 156.276 146.037 162.298 147.632C167.115 148.909 171.813 150.012 174.988 151.361C176.566 152.031 177.937 152.828 178.746 153.869C179.166 154.409 179.448 155.032 179.508 155.735C179.567 156.434 179.401 157.133 179.06 157.819C178.529 158.883 177.545 159.978 176.141 161.14C172.117 164.47 169.137 168.397 165.571 172.742C162.022 177.067 157.954 181.719 151.837 186.304C150.922 186.99 149.983 187.64 149.028 188.26C144.125 191.443 138.734 193.859 133.858 196.13C130.411 197.736 127.231 199.265 124.576 200.958C121.921 202.65 119.87 204.458 118.616 206.58C118.381 206.978 117.901 207.163 117.459 207.026C117.017 206.889 116.726 206.466 116.757 206.004C116.904 203.797 117.194 197.941 117.194 191.788C117.194 184 117.887 168.696 125.67 157.273C127.705 153.832 131.298 150.046 132.835 148.583Z" stroke="#4F46E5" stroke-width="2" stroke-linecap="round" stroke-linejoin="round"/>
<g filter="url(#filter0_d_1_610)">
<path d="M371.857 257.449L371.859 257.451L374.868 262.938L374.872 262.945L374.875 262.952L378.583 269.956L378.665 269.724L379.668 272.006L379.863 272.373L379.848 272.413L384.199 282.311L384.214 282.345L384.226 282.379L386.704 289.371L386.712 289.394L386.72 289.417L389.374 298.268L389.378 298.278L389.381 298.289L391.505 305.988L391.514 306.021L391.521 306.053L394.087 318.532L394.089 318.543L395.943 328.082L398.499 339.98L401.493 349.225L401.494 349.229C402.534 352.498 404.863 359.539 405.965 361.949C407.7 365.744 405.209 369.489 401.777 371.622C399.53 373.019 396.444 374.41 394.544 375.199L394.603 375.399L393.689 375.704L391.105 376.564L391.147 376.725L390.159 376.966C389.968 377.012 389.738 377.06 389.475 377.108L389.359 377.147L389.352 377.13C387.929 377.377 385.629 377.58 383.289 377.249L383.398 377.671L381.615 377.022L379.668 376.314L379.296 376.18L379.117 375.826L374.968 367.617L370.222 359.531L363.604 349.562C360.941 345.981 355.117 338.087 352.986 334.962C350.295 331.014 347.345 325.559 342.4 316.376C338.363 308.878 334.635 294.818 333.278 288.773L333.272 288.748L333.269 288.722L330.437 272.084L329.851 268.643L332.169 271.251C332.61 271.747 333.084 272.54 333.541 273.407C334.011 274.298 334.505 275.35 334.98 276.423C335.931 278.569 336.823 280.847 337.316 282.191C337.632 283.051 338.532 284.253 339.653 285.479C340.733 286.658 341.91 287.747 342.666 288.391C343.196 288.768 343.992 289.384 344.738 290.063C345.472 290.732 346.288 291.578 346.664 292.377C346.881 292.838 347.284 293.36 347.748 293.85C348.09 294.21 348.434 294.521 348.698 294.74L348.932 294.928L349.303 295.21L349.325 295.676C349.416 297.62 350.413 299.337 351.723 300.731C352.712 301.784 353.836 302.604 354.754 303.145L355.795 301.321L355.732 301.153L355.928 300.763C356.197 300.224 356.537 299.765 356.912 299.368L357.094 299.052L357.13 299.148C357.835 298.47 358.639 297.986 359.344 297.593C359.967 297.245 360.466 296.994 360.914 296.708C361.354 296.427 361.598 296.2 361.722 295.998L361.759 295.937C362.236 295.156 362.484 294.741 362.657 294.094C362.84 293.413 362.948 292.436 362.991 290.566C363.058 287.675 362.107 283.314 361.609 281.469L363.191 280.907C363.314 280.736 363.461 280.509 363.62 280.237C364.003 279.585 364.403 278.794 364.662 278.25C365.4 276.234 366.969 271.407 367.516 267.784C367.863 265.481 368.103 262.75 368.213 260.311C368.323 257.845 368.296 255.765 368.136 254.722L369.999 254.086L371.857 257.449Z" stroke="#4F46E5" stroke-width="2"/>
<path d="M99.8262 254.722C99.6657 255.765 99.6375 257.845 99.748 260.311C99.8575 262.75 100.099 265.481 100.446 267.784C100.994 271.411 102.565 276.245 103.302 278.257C103.561 278.8 103.96 279.588 104.342 280.237C104.501 280.508 104.647 280.736 104.77 280.907L106.353 281.469C105.855 283.314 104.903 287.675 104.971 290.566C105.014 292.436 105.122 293.413 105.305 294.094C105.478 294.741 105.726 295.156 106.203 295.937L106.24 295.998C106.364 296.2 106.608 296.427 107.048 296.708C107.496 296.994 107.995 297.245 108.618 297.593C109.323 297.986 110.126 298.471 110.831 299.149L110.868 299.052L111.051 299.371C111.426 299.767 111.765 300.225 112.034 300.763L112.229 301.153L112.166 301.321L113.207 303.145C114.125 302.604 115.249 301.784 116.238 300.731C117.548 299.337 118.546 297.62 118.637 295.676L118.659 295.21L119.03 294.928C119.299 294.723 119.758 294.33 120.213 293.85C120.677 293.36 121.081 292.838 121.298 292.377C121.674 291.578 122.49 290.732 123.224 290.063C123.969 289.384 124.764 288.768 125.295 288.391C126.051 287.747 127.228 286.659 128.308 285.479C129.429 284.253 130.329 283.051 130.645 282.191C131.138 280.847 132.031 278.57 132.981 276.423C133.457 275.35 133.95 274.298 134.42 273.407C134.877 272.54 135.351 271.747 135.792 271.251L138.111 268.643L137.525 272.084L134.693 288.722L134.689 288.748L134.684 288.773C133.327 294.818 129.598 308.878 125.561 316.376C120.616 325.559 117.666 331.014 114.975 334.962C112.841 338.091 107.006 345.999 104.348 349.574L97.7383 359.531L92.9863 367.63L88.8447 375.826L88.666 376.18L88.2939 376.314L86.3467 377.022L84.5635 377.671L84.6719 377.249C82.2855 377.586 79.9412 377.369 78.5264 377.115L78.5137 377.147L78.2754 377.067C78.0991 377.033 77.9404 376.999 77.8027 376.966L76.8145 376.725L76.8486 376.592L74.1836 375.704L73.2705 375.399L73.3408 375.157C71.4337 374.361 68.4163 372.994 66.209 371.622C62.7775 369.489 60.2866 365.744 62.0215 361.949C63.1233 359.539 65.4522 352.498 66.4922 349.229L66.4932 349.225L69.4863 339.98L72.043 328.082L73.8975 318.543L73.8994 318.532L76.4658 306.053L76.4727 306.021L76.4814 305.988L78.6055 298.289L78.6113 298.268L81.2666 289.417L81.2734 289.394L81.2822 289.371L83.7598 282.379L83.7725 282.345L83.7871 282.311L88.124 272.443L88.0986 272.373L88.3076 271.979L88.4365 271.733L89.3213 269.724L89.3926 269.928L93.0869 262.952L93.0898 262.945L93.0938 262.938L96.1025 257.451L96.1045 257.449L97.9629 254.086L99.8262 254.722Z" stroke="#4F46E5" stroke-width="2"/>
</g>
<path d="M314.664 208.385C314.985 208.279 315.338 208.343 315.602 208.555C315.866 208.768 316.004 209.1 315.97 209.436C314.658 222.378 313.82 229.332 314.802 235.267C314.828 235.425 314.817 235.588 314.767 235.74C313.649 239.179 311.666 244.275 309.803 249.172C307.925 254.109 306.181 258.818 305.49 261.581C304.779 264.42 304.325 265.973 303.86 267.203C303.398 268.425 302.924 269.33 302.234 270.795H302.233L302.11 271.056C300.727 273.99 299.458 276.699 299.133 280.027C299.057 280.807 298.655 283.908 298.5 285.026C298.292 286.761 297.243 289.289 295.654 292.191C294.036 295.146 291.79 298.605 289.081 302.221C283.667 309.448 276.354 317.364 268.408 323.151C268.369 323.179 268.328 323.205 268.286 323.227C266.645 324.092 264.88 325.387 262.797 327.171C261.36 328.401 260.024 329.11 258.702 328.957C257.356 328.801 256.423 327.799 255.681 326.708C254.929 325.601 254.169 324.079 253.303 322.479C252.419 320.844 251.376 319.028 250 317.181C246.971 313.114 246.548 308.571 246.359 304.703C246.262 302.73 246.229 300.993 245.989 299.458C245.751 297.938 245.33 296.77 244.563 295.915C243.464 294.689 242.346 292.301 241.285 289.272C240.206 286.194 239.137 282.307 238.191 277.951C236.3 269.242 234.887 258.59 234.887 248.677C234.887 248.426 234.982 248.184 235.152 248C242.357 240.188 255.27 224.317 261.997 209.348L262.043 209.257C262.164 209.049 262.355 208.891 262.583 208.812C262.845 208.723 263.133 208.745 263.377 208.875C267.781 211.21 272.541 212.618 277.507 213.299C289.481 214.939 302.606 212.342 314.664 208.385Z" stroke="#4F46E5" stroke-width="2" stroke-linecap="round" stroke-linejoin="round"/>
<path d="M153.525 208.385C153.204 208.279 152.851 208.343 152.587 208.555C152.323 208.768 152.185 209.1 152.219 209.436C153.531 222.378 154.369 229.332 153.387 235.267C153.361 235.425 153.372 235.588 153.422 235.74C154.54 239.179 156.523 244.275 158.386 249.172C160.264 254.109 162.008 258.818 162.699 261.581C163.41 264.42 163.864 265.973 164.329 267.203C164.791 268.425 165.265 269.33 165.955 270.795H165.956L166.079 271.056C167.462 273.99 168.731 276.699 169.056 280.027C169.132 280.807 169.534 283.908 169.689 285.026C169.897 286.761 170.946 289.289 172.535 292.191C174.153 295.146 176.399 298.605 179.108 302.221C184.522 309.448 191.835 317.364 199.781 323.151C199.82 323.179 199.861 323.205 199.903 323.227C201.544 324.092 203.308 325.387 205.392 327.171C206.829 328.401 208.165 329.11 209.487 328.957C210.833 328.801 211.766 327.799 212.508 326.708C213.26 325.601 214.02 324.079 214.886 322.479C215.77 320.844 216.813 319.028 218.188 317.181C221.218 313.114 221.641 308.571 221.83 304.703C221.927 302.73 221.96 300.993 222.2 299.458C222.438 297.938 222.859 296.77 223.626 295.915C224.725 294.689 225.843 292.301 226.904 289.272C227.983 286.194 229.052 282.307 229.998 277.951C231.889 269.242 233.302 258.59 233.302 248.677C233.302 248.426 233.207 248.184 233.037 248C225.832 240.188 212.919 224.317 206.192 209.348L206.146 209.257C206.025 209.049 205.834 208.891 205.605 208.812C205.344 208.723 205.056 208.745 204.812 208.875C200.408 211.21 195.648 212.618 190.682 213.299C178.708 214.939 165.583 212.342 153.525 208.385Z" stroke="#4F46E5" stroke-width="2" stroke-linecap="round" stroke-linejoin="round"/>
<path d="M180.106 158.46L180.404 158.795L183.24 161.982L183.376 162.135L183.441 162.331L184.497 165.496L186.604 170.758L189.432 177.468L192.259 183.469L192.273 183.501L195.446 190.898L198.974 197.594L198.988 197.622L199 197.65L202.191 204.733L202.203 204.759L203.974 209.009L204.233 209.627L203.758 210.1L203.049 210.808L202.935 210.924L202.79 210.996L199.245 212.766L199.147 212.815L199.041 212.843L194.787 213.905L194.737 213.917L194.686 213.925L189.723 214.633L189.682 214.638L189.64 214.641L183.615 214.995L183.559 214.999L176.768 214.641L176.729 214.639L176.689 214.634L171.372 213.926L171.333 213.921L171.294 213.912L166.345 212.851V212.852L162.8 212.144L162.754 212.135L162.709 212.122L159.206 211.071L155.711 210.374L155.61 210.353L155.514 210.312L153.033 209.25L152.548 209.043L152.446 208.527L152.091 206.757L152.072 206.659V204.509L151.727 202.097L151.717 202.027V196.702L151.375 193.63L150.684 190.867L150.654 190.747V189.975L149.883 189.207L149.59 188.914V186.601L149.966 186.302L151.739 184.885L151.759 184.868L151.782 184.852L154.226 183.107L156.977 180.702L160.485 176.847L163.303 173.679L166.477 169.804L169.305 166.271L169.324 166.249L169.343 166.227L172.534 162.686L172.566 162.65L172.601 162.618L176.855 158.722L177.141 158.46H180.106Z" stroke="#4F46E5" stroke-width="2"/>
<path d="M287.894 158.837L287.596 159.172L284.76 162.36L284.624 162.513L284.559 162.708L283.503 165.873L281.396 171.135L278.568 177.845L275.741 183.847L275.727 183.878L272.554 191.276L269.026 197.972L269.012 197.999L269 198.028L265.809 205.111L265.797 205.136L264.026 209.386L263.767 210.004L264.242 210.478L264.951 211.186L265.065 211.301L265.21 211.373L268.755 213.144L268.853 213.193L268.959 213.22L273.213 214.282L273.263 214.294L273.314 214.302L278.277 215.01L278.318 215.016L278.36 215.019L284.385 215.372L284.441 215.376L291.232 215.019L291.271 215.017L291.311 215.011L296.628 214.303L296.667 214.298L296.706 214.289L301.655 213.229V213.23L305.2 212.522L305.246 212.513L305.291 212.499L308.794 211.448L312.289 210.751L312.39 210.731L312.486 210.69L314.967 209.627L315.452 209.42L315.554 208.905L315.909 207.134L315.928 207.036V204.886L316.273 202.475L316.283 202.405V197.079L316.625 194.007L317.316 191.244L317.346 191.124V190.353L318.117 189.584L318.41 189.291V186.979L318.034 186.679L316.261 185.262L316.241 185.245L316.218 185.23L313.774 183.485L311.023 181.079L307.515 177.225L304.697 174.057L301.523 170.182L298.695 166.649L298.676 166.626L298.657 166.605L295.466 163.064L295.434 163.028L295.399 162.995L291.145 159.1L290.859 158.837H287.894Z" stroke="#4F46E5" stroke-width="2"/>
<path d="M297.992 289.374C297.815 291.526 297.409 296.871 297.198 301.038C296.991 305.115 297.574 309.204 297.885 310.708L297.887 310.72L297.89 310.73L299.127 317.463L299.47 319.377C299.597 320.104 299.73 320.89 299.85 321.647C300.084 323.12 300.293 324.6 300.293 325.265C300.293 326.423 300.116 331.517 300.028 333.896V333.897L299.674 343.112L299.543 346.523L297.813 343.581L294.936 338.689C293.67 337.149 290.644 333.49 288.274 330.696C286.09 328.121 283.786 326.203 282.748 325.439C280.769 325.273 276.729 324.847 274.55 324.284C273.685 324.061 272.568 324.152 271.446 324.419C270.342 324.681 269.349 325.083 268.793 325.361L267.694 323.708C270.53 321.276 277.771 314.668 283.958 307.763C290.091 300.92 294.602 292.314 296.077 288.896L297.992 289.374Z" stroke="#4F46E5" stroke-width="2"/>
<path d="M170.008 289.374C170.185 291.526 170.591 296.871 170.802 301.038C171.009 305.115 170.426 309.204 170.115 310.708L170.113 310.72L170.11 310.73L168.873 317.463L168.53 319.377C168.403 320.104 168.27 320.89 168.15 321.647C167.916 323.12 167.707 324.6 167.707 325.265C167.707 326.423 167.884 331.517 167.972 333.896V333.897L168.326 343.112L168.457 346.523L170.187 343.581L173.064 338.689C174.33 337.149 177.356 333.49 179.726 330.696C181.91 328.121 184.214 326.203 185.252 325.439C187.231 325.273 191.271 324.847 193.45 324.284C194.315 324.061 195.432 324.152 196.554 324.419C197.658 324.681 198.651 325.083 199.207 325.361L200.306 323.708C197.47 321.276 190.229 314.668 184.042 307.763C177.909 300.92 173.398 292.314 171.923 288.896L170.008 289.374Z" stroke="#4F46E5" stroke-width="2"/>
<path d="M271.903 329.098C273.276 328.042 276.996 326.334 281.889 328.156C286.216 329.769 292.998 333.786 297.815 341.291L298.446 340.95L298.941 341.756L299.649 342.906L299.745 343.061L299.779 343.24L300.386 346.36L302.398 352.222L302.414 352.265L302.425 352.31L304.018 358.859L304.028 358.905L304.035 358.95L305.802 370.96L307.837 382.643L307.839 382.656L307.842 382.671L309.08 391.256L309.098 391.372L309.087 391.489L307.937 404.233L307.856 405.109L307.967 405.25L307.938 405.635L307.229 414.928L306.435 429.405C306.434 434.34 306.347 445.375 305.99 450.151C305.614 455.189 303.113 457.744 301.596 458.423L300.653 458.844L300.263 457.889C299.538 456.12 297.548 451.995 295.394 449.499C293.513 447.43 290.557 445.967 287.517 444.992C284.49 444.023 281.505 443.575 279.707 443.462L279.682 443.461L279.655 443.458L262.752 441.511L262.746 441.51C259.862 441.163 255.242 440.236 250.685 438.574C246.157 436.924 241.53 434.492 238.806 431.049C232.17 422.662 233.015 413.208 233.015 403.877C233.015 394.341 233.994 390.462 235.405 387.357C236.124 385.775 237.388 384.033 238.709 382.378C239.997 380.766 241.535 379.004 242.619 377.67C243.477 376.614 244.737 374.534 245.99 372.294C247.23 370.078 248.422 367.782 249.139 366.348C250.826 362.974 254.838 353.755 257.295 344.07L257.31 344.012L257.33 343.956C257.64 343.149 258.214 341.855 258.938 340.547C259.653 339.257 260.564 337.867 261.569 336.942C261.735 336.789 261.911 336.656 262.094 336.54L262.086 336.527C264.98 334.341 270.988 329.802 271.903 329.098Z" stroke="#4F46E5" stroke-width="2"/>
<path d="M186.139 328.156C191.032 326.334 194.753 328.042 196.125 329.098C197.042 329.803 203.048 334.341 205.942 336.527L205.933 336.54C206.116 336.657 206.292 336.789 206.458 336.942C207.464 337.867 208.375 339.257 209.09 340.547C209.815 341.855 210.387 343.149 210.698 343.956L210.719 344.012L210.734 344.07C213.19 353.755 217.203 362.974 218.89 366.348C219.607 367.782 220.799 370.078 222.039 372.294C223.292 374.534 224.551 376.614 225.409 377.67C226.493 379.004 228.032 380.766 229.32 382.378C230.641 384.033 231.905 385.775 232.624 387.357C234.035 390.462 235.014 394.341 235.014 403.877C235.014 413.208 235.859 422.662 229.223 431.049C226.499 434.492 221.872 436.924 217.344 438.574C212.786 440.236 208.165 441.163 205.282 441.51L205.277 441.511L188.373 443.458L188.347 443.461L188.322 443.462C186.523 443.575 183.538 444.023 180.512 444.992C177.471 445.967 174.515 447.429 172.634 449.499C170.48 451.995 168.491 456.12 167.766 457.889L167.375 458.844L166.432 458.423C164.915 457.744 162.414 455.189 162.038 450.151C161.681 445.375 161.594 434.34 161.593 429.405L160.797 414.906V414.906L160.091 405.635L160.062 405.25L160.25 405.008L160.18 404.233L159.03 391.489L159.019 391.372L159.037 391.256L160.275 382.671L160.277 382.656L160.28 382.643L162.315 370.96L164.082 358.95L164.087 358.905L164.099 358.859L165.692 352.31L165.703 352.265L165.717 352.222L167.73 346.36L168.337 343.24L168.372 343.061L168.467 342.906L169.175 341.756L169.67 340.95L170.235 341.255C175.051 333.773 181.819 329.766 186.139 328.156Z" stroke="#4F46E5" stroke-width="2"/>
</g>
<path d="M253.456 76.9231C252.677 75.9722 246.268 76.6637 240.466 76.3179C236.569 76.3179 234.057 73.6381 234.057 83.8387C234.057 127.321 244.623 125.852 244.623 127.84C244.623 130.52 237.781 135.015 236.136 153.428C234.819 168.158 234.201 222.614 234.057 248C234.624 247.417 235.254 246.751 235.937 246.012C243.002 238.359 255.704 222.77 262.341 208.011C262.411 207.855 262.48 207.699 262.549 207.543C265.274 201.371 268.332 194.834 271.241 188.649C277.946 174.393 283.859 162.006 283.074 160.257C282.972 160.031 282.87 159.822 282.767 159.63C281.961 158.12 281.155 157.629 280.822 157.577C283.074 154.84 289.794 148.95 298.662 147.29C309.717 145.221 324.302 144.614 318.8 142.124C318.229 141.895 317.64 141.658 317.031 141.412C306.985 137.349 303.434 138.992 293.648 135.62C283.862 132.249 275.635 128.532 270.872 125.765L264.541 121.702C260.778 119.254 257.889 115.505 255.776 111.242C252.444 104.517 250.179 97.118 250.338 90.9275C250.562 82.2356 252.849 78.2774 253.456 77.3404C253.555 77.1871 253.566 77.0568 253.456 76.9231Z" stroke="#4F46E5" stroke-width="2"/>
<path d="M214.544 76.9231C215.323 75.9722 221.732 76.6637 227.534 76.3179C231.431 76.3179 233.943 73.6381 233.943 83.8387C233.943 127.321 223.377 125.852 223.377 127.84C223.377 130.52 230.219 135.015 231.864 153.428C233.181 168.158 233.799 222.614 233.943 248C233.376 247.417 232.746 246.751 232.063 246.012C224.998 238.359 212.296 222.77 205.659 208.011C205.589 207.855 205.52 207.699 205.451 207.543C202.726 201.371 199.668 194.834 196.759 188.649C190.054 174.393 184.141 162.006 184.926 160.257C185.028 160.031 185.13 159.822 185.233 159.63C186.039 158.12 186.845 157.629 187.178 157.577C184.926 154.84 178.206 148.95 169.338 147.29C158.283 145.221 143.698 144.614 149.2 142.124C149.771 141.895 150.36 141.658 150.969 141.412C161.015 137.349 164.566 138.992 174.352 135.62C184.138 132.249 192.365 128.532 197.128 125.765L203.459 121.702C207.222 119.254 210.111 115.505 212.224 111.242C215.556 104.517 217.821 97.118 217.662 90.9275C217.438 82.2356 215.151 78.2774 214.544 77.3404C214.445 77.1871 214.434 77.0568 214.544 76.9231Z" stroke="#4F46E5" stroke-width="2"/>
<path d="M217.368 96.0672C216.849 99.2657 213.904 113.27 205.504 120.359L206.37 118.197V78.0862C207.201 77.1871 209.257 76.7896 210.18 76.7033C210.787 76.6456 212.467 76.7724 214.337 77.7406C217.542 81.0256 217.888 92.8687 217.368 96.0672Z" stroke="#4F46E5" stroke-width="2"/>
<path d="M250.734 96.0672C251.254 99.2657 254.198 113.27 262.599 120.359L261.732 118.197V78.0862C260.901 77.1871 258.846 76.7896 257.922 76.7033C257.316 76.6456 255.636 76.7724 253.765 77.7406C250.561 81.0256 250.214 92.8687 250.734 96.0672Z" stroke="#4F46E5" stroke-width="2"/>
<defs>
<filter id="filter0_d_1_610" x="56.4468" y="253.602" width="355.092" height="133.657" filterUnits="userSpaceOnUse" color-interpolation-filters="sRGB">
<feFlood flood-opacity="0" result="BackgroundImageFix"/>
<feColorMatrix in="SourceAlpha" type="matrix" values="0 0 0 0 0 0 0 0 0 0 0 0 0 0 0 0 0 0 127 0" result="hardAlpha"/>
<feOffset dy="4"/>
<feGaussianBlur stdDeviation="2"/>
<feComposite in2="hardAlpha" operator="out"/>
<feColorMatrix type="matrix" values="0 0 0 0 0 0 0 0 0 0 0 0 0 0 0 0 0 0 0.25 0"/>
<feBlend mode="normal" in2="BackgroundImageFix" result="effect1_dropShadow_1_610"/>
<feBlend mode="normal" in="SourceGraphic" in2="effect1_dropShadow_1_610" result="shape"/>
</filter>
</defs>
</svg>
